<?xml version="1.0" encoding="UTF-8" standalone="no"?>
<svg
   xmlns:dc="http://purl.org/dc/elements/1.1/"
   xmlns:cc="http://creativecommons.org/ns#"
   xmlns:rdf="http://www.w3.org/1999/02/22-rdf-syntax-ns#"
   xmlns:svg="http://www.w3.org/2000/svg"
   xmlns="http://www.w3.org/2000/svg"
   width="40"
   height="40"
   viewBox="0 0 0.0004 0.0004"
   version="1.1"
   id="svg8">
  <defs
     id="defs2" />
  <metadata
     id="metadata5">
    <rdf:RDF>
      <cc:Work
         rdf:about="">
        <dc:format>image/svg+xml</dc:format>
        <dc:type
           rdf:resource="http://purl.org/dc/dcmitype/StillImage" />
        <dc:title></dc:title>
      </cc:Work>
    </rdf:RDF>
  </metadata>
  <path
     id="path24"
     d="m 1.1412504e-4,8.4947914e-5 c -3.91517e-6,1.638813e-6 -7.59573e-6,4.183897e-6 -1.115706e-5,6.473644e-6 -8.508693e-6,5.470466e-6 -1.6588635e-5,1.1709812e-5 -2.3907984e-5,1.8697002e-5 -2.2961227e-5,2.191852e-5 -3.9246707e-5,4.885293e-5 -4.7950169e-5,7.938693e-5 -2.932713e-6,1.028872e-5 -5.602437e-6,2.177221e-5 -5.603712e-6,3.251486e-5 H 3.7392512e-4 c -4.0803e-7,-9.47712e-6 -2.3653e-6,-1.918377e-5 -4.66366e-6,-2.837081e-5 -7.42422e-6,-2.969881e-5 -2.275721e-5,-5.738394e-5 -4.44274e-5,-7.905573e-5 -8.03946e-6,-8.04073e-6 -1.674197e-5,-1.5259028e-5 -2.61394e-5,-2.1667324e-5 -2.89127e-6,-1.970974e-6 -5.91643e-6,-3.773954e-6 -8.92564e-6,-5.55494e-6 -1.1189e-6,-6.61773e-7 -3.22918e-6,-1.326415e-6 -3.86353e-6,-2.528508e-6 -5.6104e-7,-1.057052e-6 7.268e-7,-2.529146e-6 1.22409e-6,-3.401628e-6 l 5.14181e-6,-8.925647e-6 c 6.14275e-6,-1.0761461e-5 1.244171e-5,-2.1434622e-5 1.858447e-5,-3.2196084e-5 2.2346e-6,-3.916446e-6 6.31489e-6,-8.903651e-6 2.15172e-6,-1.303527e-5 -2.25054e-6,-2.231093e-6 -6.25433e-6,-2.196665e-6 -8.50806e-6,3.3472e-8 -2.15172e-6,2.129723e-6 -3.53519e-6,5.605943e-6 -5.03343e-6,8.220202e-6 -6.10131e-6,1.0642877e-5 -1.233014e-5,2.1213075e-5 -1.83932e-5,3.187731e-5 -1.57793e-6,2.773008e-6 -3.20367e-6,5.515094e-6 -4.7816e-6,8.288101e-6 -5.2279e-7,9.19661e-7 -1.14758e-6,2.667175e-6 -2.2091e-6,3.074248e-6 -1.19221e-6,4.55208e-7 -3.00603e-6,-8.50168e-7 -4.07711e-6,-1.288162e-6 -3.47144e-6,-1.417903e-6 -6.95881e-6,-2.830068e-6 -1.051951e-5,-4.017498e-6 -1.262341e-5,-4.212267e-6 -2.561342e-5,-7.543446e-6 -3.889032e-5,-8.871774e-6 -2.169569e-5,-2.170526e-6 -4.345738e-5,-9.92341e-7 -6.471094e-5,4.0532e-6 -6.80485e-6,1.615542e-6 -1.354212e-5,3.76216e-6 -2.00827e-5,6.229145e-6 -2.13833e-6,8.06496e-7 -4.26806e-6,1.66559e-6 -6.37546e-6,2.549866e-6 -1.0663e-6,4.47558e-7 -2.33534e-6,1.275093e-6 -3.50173e-6,1.372e-6 -1.46093e-6,1.21452e-7 -2.14247e-6,-1.741458e-6 -2.73953e-6,-2.782252e-6 -1.71022e-6,-2.981166e-6 -3.41183e-6,-5.972533e-6 -5.1705e-6,-8.925647e-6 C 1.1136255e-4,5.5927767e-5 1.0498294e-4,4.457785e-5 9.8505155e-5,3.3306671e-5 9.6166954e-5,2.923817e-5 9.2668738e-5,2.2892354e-5 8.7034105e-5,2.6602873e-5 c -6.093667e-6,4.012715e-6 2.62988e-7,1.1732763e-5 2.679607e-6,1.5948218e-5 8.095561e-6,1.4120692e-5 1.6826438e-5,2.7996567e-5 2.4411328e-5,4.2396823e-5 m 3.18773e-6,5.8427606e-5 c 2.10836e-6,-2.7447e-7 4.34073e-6,-1.5365e-7 6.37546e-6,4.5648e-7 1.8814e-6,5.6455e-7 3.59066e-6,1.47943e-6 5.10005e-6,2.74304e-6 9.63396e-6,8.06433e-6 4.65536e-6,2.402147e-5 -7.65023e-6,2.562458e-5 -1.288991e-5,1.67898e-6 -2.060231e-5,-1.352108e-5 -1.314589e-5,-2.349677e-5 1.12145e-6,-1.50046e-6 2.57951e-6,-2.68024e-6 4.22024e-6,-3.57312e-6 1.61299e-6,-8.7759e-7 3.27157e-6,-1.51577e-6 5.10037e-6,-1.75421e-6 m 1.6034287e-4,3.5e-9 c 1.247359e-5,-1.78226e-6 2.129723e-5,1.254723e-5 1.401326e-5,2.285604e-5 -1.09976e-6,1.55338e-6 -2.50555e-6,2.86067e-6 -4.1313e-6,3.84854e-6 -1.82975e-6,1.11188e-6 -3.93366e-6,1.83932e-6 -6.05668e-6,2.11602e-6 -1.60981e-6,2.0943e-7 -3.20367e-6,4.654e-8 -4.7816e-6,-2.9391e-7 -1.232696e-5,-2.66112e-6 -1.539355e-5,-1.955545e-5 -4.7816e-6,-2.636222e-5 1.73732e-6,-1.11411e-6 3.6914e-6,-1.87183e-6 5.73792e-6,-2.16447e-6 z"
     style="fill:#3ddb85;stroke:none" />
  <path
     style="fill:none;stroke:#000000;stroke-linecap:butt;stroke-linejoin:miter;stroke-opacity:1"
     d="M 3.3628186e-4,3.1799463e-4 Z"
     id="path34" />
  <path
     style="fill:#3ddb85;fill-opacity:1;stroke:none;stroke-width:1;stroke-miterlimit:4;stroke-dasharray:none;stroke-opacity:1"
     d="m 3.0760508e-4,2.3484172e-4 8.341e-7,8.3414e-7 z m 8.341e-7,0 2.50242e-6,2.50241e-6 z m -8.341e-7,8.3414e-7 v 2.419001e-5 h 8.341e-7 z m 8.341e-7,0 6.67311e-6,6.6731e-6 z m 0,8.3413e-7 c 0,5.11719e-6 2.43736e-6,1.907758e-5 -1.33712e-6,2.285256e-5 -4.2174e-6,4.2169e-6 -1.0122965e-4,1.33746e-6 -1.0702358e-4,1.33746e-6 v 9.17552e-6 h 1.1753623e-4 v -1.08438e-5 l 1.835104e-5,1.75169e-5 5.31263e-6,7.50725e-6 -6.14677e-6,7.50724e-6 -1.75169e-5,1.584863e-5 v -1.08438e-5 H 9.171781e-5 v -2.419001e-5 l -4.838003e-5,4.671175e-5 v 8.3414e-7 c 1.546109e-5,1.546075e-5 3.044405e-5,3.41271e-5 4.838003e-5,4.671175e-5 0,-5.11744e-6 -2.43752e-6,-1.907758e-5 1.33745e-6,-2.285289e-5 4.21691e-6,-4.21657e-6 1.0122941e-4,-1.33713e-6 1.0702325e-4,-1.33713e-6 v -9.17552e-6 H 8.254229e-5 v 1.08438e-5 l -1.835105e-5,-1.75169e-5 -5.31246e-6,-7.50725e-6 6.1466e-6,-7.50724e-6 1.751691e-5,-1.584863e-5 v 1.08438e-5 h 2.2589692e-4 v 2.419001e-5 l 3.586795e-5,-3.503381e-5 1.067114e-5,-1.251208e-5 -1.067114e-5,-1.251207e-5 z"
     id="path865" />
</svg>
